<?xml version="1.0" encoding="UTF-8"?>
<svg width="47px" height="464px" viewBox="0 0 47 464" version="1.1" xmlns="http://www.w3.org/2000/svg" xmlns:xlink="http://www.w3.org/1999/xlink">
    <!-- Generator: Sketch 43.1 (39012) - http://www.bohemiancoding.com/sketch -->
    <title>flower-stem</title>
    <desc>Created with Sketch.</desc>
    <defs></defs>
    <g id="Page-1" stroke="none" stroke-width="1" fill="none" fill-rule="evenodd">
        <path d="M9,8 L29,2.27373675e-13 C29,2.27373675e-13 37.9191099,43.2334885 38,62 C38.0222648,67.1654364 21.5955927,111.201506 20.5002421,156 C20.0169164,175.767428 31.7091634,199.417577 32,222 C32.099375,229.716115 47.1553554,277.928043 47,315 C46.8446446,352.071957 31,464 31,464 L9,464 C9,464 17.7496002,408.231897 16,340 C14.2503998,271.768103 3.85282115,261.365598 3.04808957,232 C0.665133772,145.04315 3.10649024,227.833077 3.04808957,225.729179 C3.03200589,225.14976 3.01597555,224.573345 3,224 C2.92556887,221.32875 3.07101568,224.502238 3,222 C2.99157907,221.703288 3.05318968,220.419995 3.04808957,218 C3.04298947,215.580005 3.0786517,215.834965 3.04808957,215 C2.9201641,211.505045 0,141 0,141 L20,62 L9,8 Z" id="flower-stem" fill="#79962B"></path>
    </g>
</svg>