<?xml version="1.0" encoding="UTF-8"?>
<svg width="311px" height="225px" viewBox="0 0 311 225" version="1.1" xmlns="http://www.w3.org/2000/svg" xmlns:xlink="http://www.w3.org/1999/xlink">
    <!-- Generator: Sketch 43.1 (39012) - http://www.bohemiancoding.com/sketch -->
    <title>flower-petals</title>
    <desc>Created with Sketch.</desc>
    <defs>
        <linearGradient x1="4.32272712%" y1="70.3368322%" x2="95.6772729%" y2="29.6631678%" id="linearGradient-1">
            <stop stop-color="#67C8DD" offset="0%"></stop>
            <stop stop-color="#BD268C" offset="100%"></stop>
        </linearGradient>
    </defs>
    <g id="Page-1" stroke="none" stroke-width="1" fill="none" fill-rule="evenodd">
        <g id="flower" transform="translate(-313.000000, -927.000000)" stroke="#979797" fill="url(#linearGradient-1)">
            <g id="flower-petals" transform="translate(313.000000, 927.000000)">
                <path d="M203.338468,102.661975 C206.431547,99.8769533 230.461786,87.2807232 233.601145,85.048123 C236.740503,82.8155228 250.455469,77.586486 267.21051,72.4931359 C279.130442,68.8696064 285.622952,69.0485972 293.596971,68.51166 C298.536529,68.1790507 300.887931,67.7138556 303.842385,67.6666576 C306.796839,67.6194595 308.607042,67.2773021 309.841794,68.6486323 C310.703499,69.6056526 310.01488,75.4785812 309.915419,77.3960219 C309.815958,79.3134626 308.718981,83.1080519 308.331593,85.6782315 C307.770628,89.4000274 309.568756,88.4832764 307.032812,95.3454385 C302.410017,107.854538 301.074538,119.329842 294.117824,130.393933 C292.707835,132.636406 290.233963,138.231072 289.073522,140.131774 C287.913081,142.032476 278.359086,158.878472 264.882151,171.013159 C243.306315,190.440129 228.536345,197.248464 207.991291,204.722839 C200.3034,207.519724 189.70675,209.375497 182.021989,211.416842 C179.679146,212.039184 162.096004,211.474831 155.008608,211.189072 C138.013789,192.314413 161.513124,140.321684 203.338468,102.661975 Z" id="petal-firstlevel-right"></path>
                <path d="M192.562768,102.564562 C192.562768,98.4024127 193.003125,69.6464676 192.562768,65.8195684 C192.476693,65.071534 186.818175,53.5662334 186.382689,52.1218989 C186.051944,51.0249522 185.536538,51.0346422 181.816938,44.4903402 C178.097337,37.9460382 177.493417,37.7751774 176.060121,34.7062906 C170.790569,23.4234406 164.507617,19.4602538 159.583716,13.1751217 C156.533573,9.28175536 153.362355,6.68632667 151.425524,4.45915783 C149.488694,2.231989 148.534173,0.657797891 146.693628,0.657797891 C145.409152,0.657797891 141.515564,5.09929773 140.160685,6.45622974 C138.805806,7.81316176 137.011928,9.60826193 135.365385,11.6159335 C132.981078,14.5231793 129.830575,17.2867575 126.177387,22.965431 C121.016103,30.9883517 115.256812,36.9620039 111.420561,44.4903402 C107.58431,52.0186766 105.88276,52.1906522 104.794705,56.0355188 C104.361397,57.5667009 101.784698,61.4898926 100.824487,63.6670775 C100.403131,64.622461 99.9222885,66.418877 100.030443,66.6022924 C100.013821,66.6904082 100.824487,84.9670279 100.824487,102.564562 C100.824487,131.597713 105.635501,147.129605 113.807145,167.398888 C116.864947,174.983586 122.561646,184.100187 126.177387,191.177003 C127.279713,193.334503 139.433088,206.023698 144.375059,211.09945 C169.707886,211.09945 192.562768,158.846114 192.562768,102.564562 Z" id="petal-middle"></path>
                <path d="M132.209457,103.864314 C130.516559,100.062002 113.687192,78.7807944 111.727325,75.4643205 C109.767459,72.1478466 99.3650547,61.7925045 86.1302153,50.3246084 C76.7146381,42.1660766 70.710633,39.6888511 63.6443961,35.9550088 C59.2671693,33.6420557 57.3082688,32.2606775 54.628438,31.0158753 C51.9486071,29.771073 50.4340722,28.7222207 48.7483006,29.4727746 C47.5718387,29.9965692 45.8121881,35.641843 45.1231567,37.4339665 C44.4341252,39.2260901 43.8928647,43.1388006 43.2013755,45.6443415 C42.2000518,49.2725363 40.9302562,47.7036779 40.4558632,55.0040362 C39.5910879,68.3119275 36.143682,79.3383281 37.9987856,92.2754283 C38.3747785,94.8975232 38.3592169,101.014719 38.6462474,103.223091 C38.9332779,105.431463 40.8094027,124.707006 48.185574,141.274158 C59.9944203,167.797261 70.7182594,180.024472 86.4469992,195.209079 C92.3326408,200.891108 101.258351,206.896487 107.44844,211.887022 C109.335605,213.40848 125.628147,220.044626 132.219034,222.666276 C155.421589,212.335833 155.101227,155.28007 132.209457,103.864314 Z" id="petal-secondlevel-right"></path>
                <path d="M128.973686,104.843714 C130.666584,101.041401 147.495951,79.7601939 149.455818,76.44372 C151.415684,73.127246 161.818088,62.7719039 175.052928,51.3040079 C184.468505,43.145476 190.47251,40.6682505 197.538747,36.9344082 C201.915974,34.6214551 203.874874,33.240077 206.554705,31.9952747 C209.234536,30.7504725 210.749071,29.7016202 212.434842,30.4521741 C213.611304,30.9759686 215.370955,36.6212424 216.059986,38.413366 C216.749018,40.2054896 217.290278,44.1182 217.981768,46.623741 C218.983091,50.2519358 220.252887,48.6830774 220.72728,55.9834357 C221.592055,69.291327 225.039461,80.3177276 223.184358,93.2548277 C222.808365,95.8769226 222.823926,101.994119 222.536896,104.202491 C222.249865,106.410862 220.37374,125.686405 212.997569,142.253557 C201.188723,168.77666 190.464884,181.003872 174.736144,196.188479 C168.850502,201.870508 159.924792,207.875887 153.734703,212.866422 C151.847538,214.38788 135.554996,221.024026 128.964109,223.645675 C105.761554,213.315232 106.081916,156.25947 128.973686,104.843714 Z" id="petal-secondlevel-left"></path>
                <path d="M107.573172,105.911196 C104.480093,103.126174 80.4498537,90.5299442 77.3104952,88.297344 C74.1711367,86.0647438 60.4561705,80.835707 43.7011295,75.7423569 C31.7811978,72.1188274 25.2886879,72.2978181 17.3146688,71.760881 C12.3751103,71.4282717 10.0237086,70.9630765 7.06925458,70.9158785 C4.11480058,70.8686805 2.30459745,70.5265231 1.06984622,71.8978532 C0.208141248,72.8548736 0.896760122,78.7278022 0.996220915,80.6452429 C1.09568171,82.5626835 2.19265835,86.3572729 2.58004683,88.9274524 C3.14101187,92.6492484 1.34288365,91.7324973 3.87882737,98.5946595 C8.50162286,111.103759 9.83710203,122.579063 16.7938161,133.643154 C18.2038048,135.885627 20.6776764,141.480293 21.8381176,143.380995 C22.9985588,145.281697 32.5525536,162.127693 46.029489,174.26238 C67.6053249,193.68935 82.3752943,200.497685 102.920349,207.97206 C110.60824,210.768945 121.20489,212.624718 128.889651,214.666063 C131.232494,215.288405 149.025959,213.405888 156.113356,213.120129 C173.108175,194.24547 149.398516,143.570905 107.573172,105.911196 Z" id="petal-firstlevel-left"></path>
            </g>
        </g>
    </g>
</svg>