<?xml version="1.0" encoding="UTF-8"?>
<svg width="1758px" height="1794px" viewBox="0 0 1758 1794" version="1.1" xmlns="http://www.w3.org/2000/svg" xmlns:xlink="http://www.w3.org/1999/xlink">
    <!-- Generator: Sketch 43.1 (39012) - http://www.bohemiancoding.com/sketch -->
    <title>flower</title>
    <desc>Created with Sketch.</desc>
    <defs>
        <linearGradient x1="4.32272712%" y1="70.3368322%" x2="95.6772729%" y2="29.6631678%" id="linearGradient-1">
            <stop stop-color="#67C8DD" offset="0%"></stop>
            <stop stop-color="#BD268C" offset="100%"></stop>
        </linearGradient>
        <linearGradient x1="50%" y1="0%" x2="50%" y2="100%" id="linearGradient-2">
            <stop stop-color="#E40CEB" offset="0%"></stop>
            <stop stop-color="#FBFF5B" offset="100%"></stop>
        </linearGradient>
    </defs>
    <g id="Page-1" stroke="none" stroke-width="1" fill="none" fill-rule="evenodd">
        <g id="flower" transform="translate(1.000000, 1.000000)" stroke="#979797">
            <path d="M1132.89481,1175.30251 C1148.70156,1161.07005 1271.17718,1096.33506 1287.1989,1084.90177 C1303.22063,1073.46848 1373.05109,1046.45977 1458.31334,1020.02887 C1518.97092,1001.22531 1551.93172,1001.89762 1592.44116,998.886407 C1617.53501,997.021094 1629.49167,994.577314 1644.49533,994.230985 C1659.49899,993.884656 1668.70312,992.084298 1674.92319,998.992382 C1679.26403,1003.81338 1675.55465,1033.61481 1674.98015,1043.34007 C1674.40565,1053.06534 1668.69803,1072.34412 1666.63786,1085.38929 C1663.6546,1104.27958 1672.81824,1099.5664 1659.69278,1134.45028 C1635.76627,1198.04045 1628.56935,1256.27005 1592.84415,1312.61839 C1585.60336,1324.03909 1572.839,1352.49436 1566.87773,1362.1732 C1560.91646,1371.85204 1511.79349,1457.60945 1442.92152,1519.62205 C1332.66126,1618.90082 1257.41656,1653.955 1152.82334,1692.59528 C1113.68491,1707.05434 1059.81065,1716.84722 1020.71548,1727.47549 C1008.79658,1730.71571 919.534407,1728.49135 883.556802,1727.29926 C797.945292,1632.21805 919.152313,1367.75712 1132.89481,1175.30251 Z" id="petal-firstlevel-right" fill="url(#linearGradient-1)"></path>
            <path d="M764.097643,1181.28269 C755.446325,1161.85151 669.88937,1052.89783 659.903133,1035.93638 C649.916897,1018.97493 597.109029,965.898635 529.968497,907.073526 C482.203137,865.223956 451.818503,852.431775 416.036051,833.204223 C393.870376,821.293589 383.941399,814.197873 370.375739,807.778948 C356.810079,801.360023 349.133954,795.971655 340.641869,799.752575 C334.715434,802.391193 325.982791,831.124894 322.551999,840.243037 C319.121206,849.36118 316.493996,869.294724 313.070104,882.05002 C308.112076,900.520562 301.6577,892.487669 299.459843,929.694289 C295.453351,997.518584 278.343954,1053.64123 288.061612,1119.64874 C290.03119,1133.02716 290.118202,1164.21408 291.627359,1175.48081 C293.136517,1186.74753 303.131903,1285.07094 340.826781,1369.73502 C401.174218,1505.27758 455.655861,1567.90594 535.4901,1645.74749 C565.363804,1674.87554 610.597269,1705.73442 641.989579,1731.34525 C651.560112,1739.1532 734.009899,1773.42734 767.361941,1786.97172 C884.244962,1734.93205 881.082789,1444.03563 764.097643,1181.28269 Z" id="petal-secondlevel-right" fill="url(#linearGradient-1)"></path>
            <path d="M753.682985,1186.21642 C762.334303,1166.78524 847.891258,1057.83157 857.877495,1040.87011 C867.863731,1023.90866 920.671599,970.832366 987.812132,912.007258 C1035.57749,870.157687 1065.96213,857.365506 1101.74458,838.137954 C1123.91025,826.22732 1133.83923,819.131605 1147.40489,812.712679 C1160.97055,806.293754 1168.64667,800.905386 1177.13876,804.686306 C1183.06519,807.324925 1191.79784,836.058625 1195.22863,845.176768 C1198.65942,854.294911 1201.28663,874.228455 1204.71052,886.983751 C1209.66855,905.454294 1216.12293,897.4214 1218.32078,934.62802 C1222.32728,1002.45232 1239.43667,1058.57496 1229.71902,1124.58248 C1227.74944,1137.9609 1227.66243,1169.14781 1226.15327,1180.41454 C1224.64411,1191.68126 1214.64873,1290.00467 1176.95385,1374.66875 C1116.60641,1510.21131 1062.12477,1572.83967 982.290528,1650.68122 C952.416824,1679.80927 907.183359,1710.66815 875.791049,1736.27899 C866.220517,1744.08693 783.770729,1778.36107 750.418687,1791.90545 C633.535666,1739.86578 636.697839,1448.96936 753.682985,1186.21642 Z" id="petal-secondlevel-left" fill="url(#linearGradient-1)"></path>
            <path d="M639.016258,1191.73635 C623.209513,1177.50389 500.733892,1112.7689 484.712167,1101.33561 C468.690442,1089.90232 398.85998,1062.89361 313.597724,1036.46271 C252.940143,1017.65915 219.97935,1018.33146 179.469903,1015.32025 C154.37606,1013.45493 142.419401,1011.01115 127.415742,1010.66482 C112.412083,1010.3185 103.207947,1008.51814 96.9878797,1015.42622 C92.6470352,1020.24722 96.3564178,1050.04865 96.9309158,1059.77391 C97.5054137,1069.49918 103.21304,1088.77796 105.273206,1101.82313 C108.256468,1120.71342 99.0928301,1116.00024 112.218284,1150.88412 C136.144797,1214.47429 143.341722,1272.70389 179.066919,1329.05223 C186.307712,1340.47293 199.072063,1368.9282 205.033337,1378.60704 C210.994612,1388.28588 260.117583,1474.04329 328.989553,1536.05589 C439.249807,1635.33466 514.494512,1670.38884 619.087729,1709.02912 C658.22616,1723.48818 712.100422,1733.28106 751.195591,1743.90933 C763.114484,1747.14955 853.396878,1738.24955 889.374482,1737.05746 C974.985993,1641.97625 852.758755,1384.19096 639.016258,1191.73635 Z" id="petal-firstlevel-left" fill="url(#linearGradient-1)"></path>
            <path d="M1072.20997,1174.78009 C1072.20997,1153.51001 1074.42827,1006.55683 1072.20997,987 C1071.77636,983.177276 1043.27154,924.381067 1041.07778,917 C1039.41165,911.394209 1036.81529,911.443729 1018.07778,878 C999.340263,844.556271 996.298012,843.683112 989.077775,828 C962.53237,770.340593 930.881958,750.087288 906.077775,717.968011 C890.712661,698.071513 874.737628,684.807943 864.980832,673.426312 C855.224036,662.044681 850.415632,654 841.143872,654 C834.67332,654 815.059342,676.697656 808.23413,683.632065 C801.408918,690.566474 792.372246,699.740079 784.077775,710 C772.066814,724.857068 756.196136,738.979943 737.793173,768 C711.793173,809 682.780707,839.527503 663.455569,878 C644.130431,916.472497 635.558858,917.351354 630.077775,937 C627.894986,944.824889 614.914847,964.873805 610.077775,976 C607.955191,980.882352 605.532946,990.062682 606.077775,991 C605.994044,991.450303 610.077775,1084.85038 610.077775,1174.78009 C610.077775,1323.14989 634.313292,1402.52342 675.478002,1506.10673 C690.881699,1544.86725 719.578855,1591.45635 737.793173,1627.62142 C743.346149,1638.64701 804.568858,1703.49335 829.464067,1729.43226 C957.078348,1729.43226 1072.20997,1462.39898 1072.20997,1174.78009 Z" id="petal-middle" fill="url(#linearGradient-1)"></path>
            <ellipse id="drop-bottom-left" fill="url(#linearGradient-2)" cx="29" cy="669" rx="29" ry="28"></ellipse>
            <ellipse id="drop-bottom-right" fill="url(#linearGradient-2)" cx="1727" cy="614" rx="29" ry="28"></ellipse>
            <ellipse id="drop-right" fill="url(#linearGradient-2)" cx="1368" cy="290" rx="29" ry="28"></ellipse>
            <ellipse id="drop-middle" fill="url(#linearGradient-2)" cx="869" cy="28" rx="29" ry="28"></ellipse>
            <ellipse id="drop-left" fill="url(#linearGradient-2)" cx="373" cy="316" rx="29" ry="28"></ellipse>
        </g>
    </g>
</svg>